HIERARCHY
ROOT Hips
{
	OFFSET 0.000000 0.000000 0.000000
	CHANNELS 6 Xposition Yposition Zposition Xrotation Yrotation Zrotation
	JOINT LeftUpLeg_virtual
	{
		OFFSET 0.000000 0.000000 0.000000
		CHANNELS 3 Xrotation Yrotation Zrotation
		JOINT LeftUpLeg
		{
			OFFSET 10.205400 -3.823500 0.155100
			CHANNELS 3 Xrotation Yrotation Zrotation
			JOINT LeftLeg
			{
				OFFSET 0.708757 -12.982077 0.567790
				CHANNELS 3 Xrotation Yrotation Zrotation
				JOINT LeftFoot
				{
					OFFSET -0.708756 -10.717838 -2.184338
					CHANNELS 3 Xrotation Yrotation Zrotation
					JOINT LeftToeBase
					{
						OFFSET 0.108149 -7.191104 7.560241
						CHANNELS 3 Xrotation Yrotation Zrotation
						JOINT LeftToe_End
						{
							OFFSET 0.070230 0.081724 4.490308
							CHANNELS 3 Xrotation Yrotation Zrotation
							End Site
							{
								OFFSET 0 0 0
							}
						}
					}
				}
			}
		}
	}
	JOINT RightUpLeg_virtual
	{
		OFFSET 0.000000 0.000000 0.000000
		CHANNELS 3 Xrotation Yrotation Zrotation
		JOINT RightUpLeg
		{
			OFFSET -10.205400 -3.823500 0.005500
			CHANNELS 3 Xrotation Yrotation Zrotation
			JOINT RightLeg
			{
				OFFSET -0.708756 -12.982134 0.610632
				CHANNELS 3 Xrotation Yrotation Zrotation
				JOINT RightFoot
				{
					OFFSET 0.708754 -10.717769 -1.945823
					CHANNELS 3 Xrotation Yrotation Zrotation
					JOINT RightToeBase
					{
						OFFSET -0.108140 -7.191069 7.372968
						CHANNELS 3 Xrotation Yrotation Zrotation
						JOINT RightToe_End
						{
							OFFSET -0.070227 0.081735 4.479403
							CHANNELS 3 Xrotation Yrotation Zrotation
							End Site
							{
								OFFSET 0 0 0
							}
						}
					}
				}
			}
		}
	}
	JOINT Spine_virtual
	{
		OFFSET 0.000000 0.000000 0.000000
		CHANNELS 3 Xrotation Yrotation Zrotation
		JOINT Spine
		{
			OFFSET 0.000000 6.876099 0.125700
			CHANNELS 3 Xrotation Yrotation Zrotation
			JOINT Spine1
			{
				OFFSET 0.000000 5.730043 0.104720
				CHANNELS 3 Xrotation Yrotation Zrotation
				JOINT Spine1_split
				{
					OFFSET 0.000000 5.730043 0.104720
					CHANNELS 3 Xrotation Yrotation Zrotation
					JOINT Spine2
					{
						OFFSET 0.000000 5.730043 0.104720
						CHANNELS 3 Xrotation Yrotation Zrotation
						JOINT Neck_virtual
						{
							OFFSET 0.000000 0.000000 0.000000
							CHANNELS 3 Xrotation Yrotation Zrotation
							JOINT Neck
							{
								OFFSET 0.000000 10.314075 0.188496
								CHANNELS 3 Xrotation Yrotation Zrotation
								JOINT Head
								{
									OFFSET 0.000000 7.643700 -2.377400
									CHANNELS 3 Xrotation Yrotation Zrotation
									JOINT HeadTop_End
									{
										OFFSET 0.000000 43.788605 -13.619600
										CHANNELS 3 Xrotation Yrotation Zrotation
										End Site
										{
											OFFSET 0 0 0
										}
									}
								}
							}
						}
						JOINT LeftShoulder_virtual
						{
							OFFSET 0.000000 0.000000 0.000000
							CHANNELS 3 Xrotation Yrotation Zrotation
							JOINT LeftShoulder
							{
								OFFSET 2.196100 4.412489 0.087492
								CHANNELS 3 Xrotation Yrotation Zrotation
								JOINT LeftShoulder_split
								{
									OFFSET 2.196100 4.412489 0.087492
									CHANNELS 3 Xrotation Yrotation Zrotation
									JOINT LeftArm
									{
										OFFSET 8.771219 -2.981674 -0.026999
										CHANNELS 3 Xrotation Yrotation Zrotation
										JOINT LeftForeArm
										{
											OFFSET 8.512804 0.000000 -0.000000
											CHANNELS 3 Xrotation Yrotation Zrotation
											JOINT LeftHand
											{
												OFFSET 18.484802 0.000000 -0.000000
												CHANNELS 3 Xrotation Yrotation Zrotation
												End Site
												{
													OFFSET 0 0 0
												}
											}
										}
									}
								}
							}
						}
						JOINT RightShoulder_virtual
						{
							OFFSET 0.000000 0.000000 0.000000
							CHANNELS 3 Xrotation Yrotation Zrotation
							JOINT RightShoulder
							{
								OFFSET -2.196100 4.412496 0.070690
								CHANNELS 3 Xrotation Yrotation Zrotation
								JOINT RightShoulder_split
								{
									OFFSET -2.196100 4.412496 0.070690
									CHANNELS 3 Xrotation Yrotation Zrotation
									JOINT RightArm
									{
										OFFSET -8.771282 -2.981682 -0.094208
										CHANNELS 3 Xrotation Yrotation Zrotation
										JOINT RightForeArm
										{
											OFFSET -8.494598 0.000000 0.000000
											CHANNELS 3 Xrotation Yrotation Zrotation
											JOINT RightHand
											{
												OFFSET -18.483803 0.000000 0.000001
												CHANNELS 3 Xrotation Yrotation Zrotation
												End Site
												{
													OFFSET 0 0 0
												}
											}
										}
									}
								}
							}
						}
					}
				}
			}
		}
	}
}
MOTION
Frames: 4
Frame Time: 0.03333333
0.326525 33.634357 -1.499149 0.000000 0.000000 0.000000 -2.930353 2.598659 1.424275 -7.442632 8.400386 8.272714 28.982381 -4.276033 -2.824540 -22.141730 1.517419 -4.046605 -0.755130 0.110922 0.986250 0.000000 0.000000 0.000000 -3.170535 2.965917 1.145570 3.541328 -4.381478 -6.629963 22.563451 -6.893928 4.200509 -21.881112 -19.885319 2.241956 -1.264415 -0.207663 -0.003842 0.000000 0.000000 0.000000 -2.996798 1.991572 0.987313 -0.074670 -2.045752 -2.945696 0.652354 -0.325431 1.886375 1.229202 -0.236100 -0.099868 0.000000 0.000000 0.000000 -0.097001 -0.234558 1.622771 6.792698 0.499110 -0.354732 -2.465402 1.560782 2.498345 0.000000 0.000000 0.000000 0.206206 -0.038192 1.332203 5.993536 -25.436417 -5.655812 -1.753304 -1.992861 -1.888727 8.968476 5.494987 -79.046271 -1.883307 -14.402190 1.858612 0.000000 0.000000 0.000000 0.264993 -0.023883 2.085779 2.747846 -6.121457 9.254246 -0.298038 3.659491 -0.381295 8.132177 19.504508 71.569953 1.378367 14.536548 -0.067711 0.000000 0.000000 0.000000 
0.261376 33.627110 -1.502582 0.000000 0.000000 0.000000 -2.911962 2.641166 1.421038 -7.431230 8.539748 8.308011 28.949644 -4.336558 -2.907645 -22.182037 1.443614 -4.018205 -0.695735 0.107321 1.012267 0.000000 0.000000 0.000000 -3.145973 2.988302 1.147106 3.566192 -4.439491 -6.555145 22.656491 -6.959737 4.231854 -21.957953 -19.843161 2.099807 -1.227260 -0.190410 -0.025243 0.000000 0.000000 0.000000 -2.992621 1.898675 1.074859 -0.151797 -2.049020 -2.995362 0.593234 -0.331039 1.856839 1.173060 -0.251810 -0.093829 0.000000 0.000000 0.000000 -0.114093 -0.224037 1.598686 6.873179 0.519922 -0.421278 -2.383688 1.632834 2.416199 0.000000 0.000000 0.000000 0.181212 -0.041140 1.308499 6.072931 -25.444659 -5.641214 -1.749170 -1.747319 -2.099420 8.841396 5.267167 -79.189172 -1.876546 -14.624731 1.881348 0.000000 0.000000 0.000000 0.233851 -0.022628 2.105095 2.734578 -6.114455 9.205959 -0.355197 3.941271 -0.418169 8.357266 19.350867 71.582568 1.422599 14.473198 -0.137813 0.000000 0.000000 0.000000 
0.188569 33.617004 -1.488861 0.000000 0.000000 0.000000 -2.920941 2.649442 1.401411 -7.330404 8.667040 8.378510 28.837158 -4.361408 -2.924355 -22.195234 1.401883 -3.982280 -0.661804 0.101737 1.016561 0.000000 0.000000 0.000000 -3.109463 2.954750 1.138827 3.602827 -4.423086 -6.545390 22.722204 -6.958551 4.297555 -21.721212 -19.781433 2.208908 -1.437296 -0.166855 -0.094945 0.000000 0.000000 0.000000 -3.001104 1.869731 1.140410 -0.226096 -2.003340 -3.036769 0.491667 -0.328284 1.829692 1.120763 -0.202996 -0.034316 0.000000 0.000000 0.000000 -0.170625 -0.205191 1.591681 6.906578 0.534194 -0.493383 -2.286338 1.563902 2.348226 0.000000 0.000000 0.000000 0.124719 -0.029185 1.303695 6.109110 -25.497870 -5.697185 -1.809364 -1.538876 -2.304787 8.933464 4.792182 -79.194070 -1.764422 -14.855962 1.891917 0.000000 0.000000 0.000000 0.190014 -0.010469 2.108070 2.693883 -6.019554 9.195458 -0.320758 4.066666 -0.505603 8.436718 19.384743 71.429565 1.391855 14.450361 -0.119291 0.000000 0.000000 0.000000 
0.130195 33.608482 -1.455896 0.000000 0.000000 0.000000 -2.951974 2.608948 1.362537 -7.162941 8.753130 8.475117 28.670805 -4.322884 -2.864999 -22.178779 1.384588 -3.936251 -0.664034 0.095295 0.999666 0.000000 0.000000 0.000000 -3.051424 2.912657 1.117185 3.680392 -4.357027 -6.568647 22.724898 -6.927677 4.367554 -21.328294 -19.698902 2.420507 -1.781571 -0.138895 -0.182132 0.000000 0.000000 0.000000 -3.000777 1.900705 1.166383 -0.259830 -1.933889 -3.063398 0.369580 -0.323492 1.808562 1.117360 -0.204553 0.073765 0.000000 0.000000 0.000000 -0.257795 -0.181894 1.605074 6.900299 0.558941 -0.554593 -2.167129 1.385198 2.302989 0.000000 0.000000 0.000000 0.034977 -0.009055 1.319446 6.107811 -25.598065 -5.774113 -1.897435 -1.343844 -2.506738 9.192425 4.196847 -79.000639 -1.596671 -15.068506 1.842549 0.000000 0.000000 0.000000 0.122370 0.002188 2.096187 2.632561 -5.844250 9.270852 -0.201887 3.962550 -0.546576 8.372244 19.548230 71.176179 1.289178 14.563459 -0.031701 0.000000 0.000000 0.000000 
